<svg xmlns="http://www.w3.org/2000/svg" viewBox="0 0 1600 900" preserveAspectRatio="xMidYMid slice">
  <rect width="800" height="900" fill="#050706"/>
  <rect x="800" width="800" height="900" fill="#00DF81"/>
  <line x1="800" y1="0" x2="800" y2="900" stroke="#F3F1EC" stroke-width="4" stroke-dasharray="20 16"/>
  <g transform="translate(400 380)">
    <circle cx="0" cy="0" r="180" fill="#F3F1EC"/>
    <text x="0" y="60" text-anchor="middle" font-family="'IBM Plex Mono', ui-monospace, monospace" font-weight="900" font-size="220" fill="#050706">A</text>
  </g>
  <g transform="translate(1200 380)">
    <circle cx="0" cy="0" r="180" fill="#050706"/>
    <text x="0" y="60" text-anchor="middle" font-family="'IBM Plex Mono', ui-monospace, monospace" font-weight="900" font-size="220" fill="#00DF81">B</text>
  </g>
  <g transform="translate(400 700)" stroke-linecap="round">
    <rect x="-160" y="-40" width="40" height="80" fill="#F3F1EC"/>
    <rect x="-100" y="-30" width="40" height="70" fill="#F3F1EC"/>
    <rect x="-40" y="-50" width="40" height="100" fill="#F3F1EC"/>
    <rect x="20" y="-20" width="40" height="60" fill="#F3F1EC"/>
    <rect x="80" y="-35" width="40" height="75" fill="#F3F1EC"/>
  </g>
  <g transform="translate(1200 700)" stroke-linecap="round">
    <rect x="-160" y="-70" width="40" height="140" fill="#050706"/>
    <rect x="-100" y="-60" width="40" height="120" fill="#050706"/>
    <rect x="-40" y="-90" width="40" height="180" fill="#050706"/>
    <rect x="20" y="-50" width="40" height="100" fill="#050706"/>
    <rect x="80" y="-75" width="40" height="150" fill="#050706"/>
  </g>
  <g transform="translate(800 800)">
    <text x="-90" y="0" text-anchor="middle" font-family="'IBM Plex Mono', ui-monospace, monospace" font-weight="700" font-size="22" fill="#F3F1EC" letter-spacing="6">CONTROL</text>
    <text x="90" y="0" text-anchor="middle" font-family="'IBM Plex Mono', ui-monospace, monospace" font-weight="700" font-size="22" fill="#050706" letter-spacing="6">VARIANT</text>
  </g>
</svg>
