<svg xmlns="http://www.w3.org/2000/svg" viewBox="0 0 1600 900" preserveAspectRatio="xMidYMid slice">
  <rect width="1600" height="900" fill="#0C324A"/>
  <rect x="1100" y="0" width="500" height="900" fill="#679CBC"/>
  <g stroke="#FEF1D5" stroke-width="1" opacity="0.06">
    <line x1="0" y1="225" x2="1100" y2="225"/>
    <line x1="0" y1="450" x2="1100" y2="450"/>
    <line x1="0" y1="675" x2="1100" y2="675"/>
  </g>
  <g transform="translate(540 460)" stroke="#FEF1D5" stroke-width="16" fill="none" stroke-linecap="round" stroke-linejoin="round">
    <path d="M-220 0 C-220 -160, -100 -260, 0 -260 C100 -260, 220 -160, 220 0"/>
    <rect x="-260" y="-20" width="100" height="180" rx="40" fill="#FEF1D5" stroke="none"/>
    <rect x="160" y="-20" width="100" height="180" rx="40" fill="#FEF1D5" stroke="none"/>
    <path d="M210 160 L210 240 C210 280, 180 300, 140 300 L40 300" stroke-width="14"/>
    <circle cx="20" cy="300" r="22" fill="#FEF1D5" stroke="none"/>
  </g>
  <g transform="translate(1340 460)">
    <circle cx="0" cy="0" r="200" fill="none" stroke="#FEF1D5" stroke-width="20"/>
    <circle cx="0" cy="0" r="200" fill="none" stroke="#C11720" stroke-width="20" stroke-dasharray="780 1257" transform="rotate(-90)"/>
    <line x1="0" y1="0" x2="120" y2="-90" stroke="#FEF1D5" stroke-width="14" stroke-linecap="round"/>
    <circle cx="0" cy="0" r="22" fill="#FEF1D5"/>
    <text x="0" y="-110" text-anchor="middle" font-family="Inter, sans-serif" font-weight="800" font-size="22" fill="#FEF1D5" letter-spacing="4">KPI</text>
  </g>
</svg>
