<svg xmlns="http://www.w3.org/2000/svg" viewBox="0 0 1600 900" preserveAspectRatio="xMidYMid slice">
  <rect width="1600" height="900" fill="#0C324A"/>
  <rect x="0" y="0" width="640" height="900" fill="#FEF1D5"/>
  <g stroke="#0C324A" stroke-width="1" opacity="0.1">
    <line x1="0" y1="225" x2="640" y2="225"/>
    <line x1="0" y1="450" x2="640" y2="450"/>
    <line x1="0" y1="675" x2="640" y2="675"/>
  </g>
  <g transform="translate(320 460)">
    <rect x="-220" y="-220" width="120" height="440" fill="#C11720" stroke="#0C324A" stroke-width="6" rx="4"/>
    <rect x="-100" y="-260" width="120" height="480" fill="#0C324A" stroke="#0C324A" stroke-width="6" rx="4"/>
    <rect x="20" y="-200" width="120" height="420" fill="#679CBC" stroke="#0C324A" stroke-width="6" rx="4"/>
    <rect x="140" y="-240" width="120" height="460" fill="#C11720" stroke="#0C324A" stroke-width="6" rx="4"/>
    <line x1="-220" y1="-180" x2="-100" y2="-180" stroke="#FEF1D5" stroke-width="3"/>
    <line x1="-220" y1="-140" x2="-100" y2="-140" stroke="#FEF1D5" stroke-width="3"/>
    <line x1="-100" y1="-220" x2="20" y2="-220" stroke="#FEF1D5" stroke-width="3"/>
    <line x1="-100" y1="-180" x2="20" y2="-180" stroke="#FEF1D5" stroke-width="3"/>
    <line x1="20" y1="-160" x2="140" y2="-160" stroke="#FEF1D5" stroke-width="3"/>
    <line x1="140" y1="-200" x2="260" y2="-200" stroke="#FEF1D5" stroke-width="3"/>
    <line x1="140" y1="-160" x2="260" y2="-160" stroke="#FEF1D5" stroke-width="3"/>
  </g>
  <g transform="translate(1100 460)" font-family="JetBrains Mono, monospace" fill="#FEF1D5">
    <text x="0" y="-220" font-size="32" font-weight="600">SELECT</text>
    <text x="-200" y="-220" font-size="32" font-weight="500" opacity="0.5" text-anchor="end">01</text>
    <text x="60" y="-220" font-size="32" fill="#679CBC">title, COUNT(*)</text>
    <text x="0" y="-160" font-size="32" font-weight="600">FROM</text>
    <text x="-200" y="-160" font-size="32" font-weight="500" opacity="0.5" text-anchor="end">02</text>
    <text x="60" y="-160" font-size="32" fill="#FEF1D5">books</text>
    <text x="0" y="-100" font-size="32" font-weight="600">JOIN</text>
    <text x="-200" y="-100" font-size="32" font-weight="500" opacity="0.5" text-anchor="end">03</text>
    <text x="60" y="-100" font-size="32" fill="#679CBC">authors a</text>
    <text x="40" y="-40" font-size="32" font-weight="600">ON</text>
    <text x="-200" y="-40" font-size="32" font-weight="500" opacity="0.5" text-anchor="end">04</text>
    <text x="100" y="-40" font-size="32" fill="#FEF1D5">a.id = books.author_id</text>
    <text x="0" y="20" font-size="32" font-weight="600">GROUP BY</text>
    <text x="-200" y="20" font-size="32" font-weight="500" opacity="0.5" text-anchor="end">05</text>
    <text x="180" y="20" font-size="32" fill="#679CBC">title</text>
    <text x="0" y="80" font-size="32" font-weight="600">ORDER BY</text>
    <text x="-200" y="80" font-size="32" font-weight="500" opacity="0.5" text-anchor="end">06</text>
    <text x="180" y="80" font-size="32" fill="#FEF1D5">2 DESC;</text>
  </g>
  <g transform="translate(1080 720)" fill="#C11720" font-family="Inter, sans-serif" font-weight="800" font-size="22" letter-spacing="6">
    <text>SQL · ANALYTICS</text>
  </g>
</svg>
