<svg xmlns="http://www.w3.org/2000/svg" viewBox="0 0 1600 900" preserveAspectRatio="xMidYMid slice">
  <rect width="1600" height="900" fill="#0C324A"/>
  <rect x="0" y="640" width="1600" height="260" fill="#C11720"/>
  <g stroke="#FEF1D5" stroke-width="1" opacity="0.07">
    <line x1="0" y1="160" x2="1600" y2="160"/>
    <line x1="0" y1="320" x2="1600" y2="320"/>
    <line x1="0" y1="480" x2="1600" y2="480"/>
  </g>
  <g transform="translate(800 380)" stroke="#FEF1D5" stroke-width="16" fill="none" stroke-linecap="round" stroke-linejoin="round">
    <path d="M-280 -160 L-180 -160 L-120 140 L240 140"/>
    <path d="M-160 -80 L300 -80 L260 140"/>
  </g>
  <g transform="translate(800 380)">
    <rect x="-140" y="-60" width="80" height="80" fill="#FEF1D5" rx="6"/>
    <rect x="-50" y="-40" width="60" height="60" fill="#679CBC" rx="6"/>
    <circle cx="60" cy="-30" r="36" fill="#FEF1D5"/>
    <rect x="120" y="-50" width="80" height="70" fill="#C11720" rx="6"/>
    <rect x="210" y="-30" width="60" height="50" fill="#FEF1D5" rx="6"/>
  </g>
  <g transform="translate(800 380)" stroke="#FEF1D5" stroke-width="16" fill="#0C324A" stroke-linecap="round" stroke-linejoin="round">
    <circle cx="-60" cy="200" r="36"/>
    <circle cx="200" cy="200" r="36"/>
  </g>
  <g transform="translate(120 200)" fill="#FEF1D5" opacity="0.85">
    <circle cx="0" cy="0" r="6"/>
    <circle cx="40" cy="20" r="6"/>
    <circle cx="20" cy="60" r="6"/>
  </g>
  <g transform="translate(1400 220)" fill="#FEF1D5" opacity="0.85">
    <circle cx="0" cy="0" r="6"/>
    <circle cx="-40" cy="20" r="6"/>
    <circle cx="-20" cy="60" r="6"/>
  </g>
</svg>
