<svg xmlns="http://www.w3.org/2000/svg" viewBox="0 0 1600 900" preserveAspectRatio="xMidYMid slice">
  <rect width="1600" height="900" fill="#0C324A"/>
  <rect x="0" y="0" width="640" height="900" fill="#C11720"/>
  <g stroke="#FEF1D5" stroke-width="1" opacity="0.07">
    <line x1="640" y1="100" x2="1600" y2="100"/>
    <line x1="640" y1="300" x2="1600" y2="300"/>
    <line x1="640" y1="500" x2="1600" y2="500"/>
    <line x1="640" y1="700" x2="1600" y2="700"/>
  </g>
  <g transform="translate(320 380)" stroke="#FEF1D5" stroke-width="14" fill="none" stroke-linecap="round" stroke-linejoin="round">
    <circle cx="0" cy="-90" r="80" fill="#FEF1D5" stroke="none"/>
    <path d="M-150 200 C-150 80, -75 60, 0 60 C75 60, 150 80, 150 200" fill="#FEF1D5" stroke="none"/>
  </g>
  <g transform="translate(900 250)" stroke-linecap="round">
    <rect x="0" y="240" width="80" height="160" fill="#679CBC"/>
    <rect x="120" y="120" width="80" height="280" fill="#FEF1D5"/>
    <rect x="240" y="60" width="80" height="340" fill="#C11720"/>
    <rect x="360" y="180" width="80" height="220" fill="#679CBC"/>
    <rect x="480" y="0" width="80" height="400" fill="#FEF1D5"/>
  </g>
  <g transform="translate(910 720)" stroke="#FEF1D5" stroke-width="3" opacity="0.85">
    <line x1="0" y1="0" x2="540" y2="0"/>
  </g>
</svg>
