<svg xmlns="http://www.w3.org/2000/svg" viewBox="0 0 1600 900" preserveAspectRatio="xMidYMid slice">
  <rect width="1600" height="900" fill="#0C324A"/>
  <rect x="0" y="0" width="800" height="900" fill="#0C324A"/>
  <rect x="800" y="0" width="800" height="900" fill="#C11720"/>
  <g stroke="#FEF1D5" stroke-width="1" opacity="0.06">
    <line x1="0" y1="225" x2="800" y2="225"/>
    <line x1="0" y1="450" x2="800" y2="450"/>
    <line x1="0" y1="675" x2="800" y2="675"/>
  </g>
  <g transform="translate(400 450)" stroke="#FEF1D5" stroke-width="14" fill="none" stroke-linecap="round" stroke-linejoin="round">
    <rect x="-140" y="-260" width="280" height="520" rx="32"/>
    <line x1="-60" y1="-220" x2="60" y2="-220"/>
    <circle cx="0" cy="220" r="14" fill="#FEF1D5" stroke="none"/>
  </g>
  <g transform="translate(400 380)">
    <rect x="-90" y="-40" width="32" height="80" fill="#FEF1D5" rx="6"/>
    <rect x="-40" y="-70" width="32" height="110" fill="#FEF1D5" rx="6"/>
    <rect x="10" y="-110" width="32" height="150" fill="#FEF1D5" rx="6"/>
    <rect x="60" y="-160" width="32" height="200" fill="#FEF1D5" rx="6"/>
  </g>
  <g transform="translate(1200 450)" stroke="#FEF1D5" stroke-width="14" fill="none" stroke-linecap="round" stroke-linejoin="round">
    <rect x="-140" y="-260" width="280" height="520" rx="32"/>
    <line x1="-60" y1="-220" x2="60" y2="-220"/>
    <circle cx="0" cy="220" r="14" fill="#FEF1D5" stroke="none"/>
  </g>
  <g transform="translate(1200 380)">
    <rect x="-90" y="-110" width="32" height="150" fill="#FEF1D5" rx="6"/>
    <rect x="-40" y="-150" width="32" height="190" fill="#FEF1D5" rx="6"/>
    <rect x="10" y="-180" width="32" height="220" fill="#FEF1D5" rx="6"/>
    <rect x="60" y="-200" width="32" height="240" fill="#FEF1D5" rx="6"/>
  </g>
  <g transform="translate(800 450)" stroke="#FEF1D5" stroke-width="6" fill="#FEF1D5">
    <circle cx="0" cy="0" r="44" fill="#0C324A" stroke="#FEF1D5"/>
    <text x="0" y="14" text-anchor="middle" font-family="Inter, sans-serif" font-weight="800" font-size="40" fill="#FEF1D5" stroke="none">VS</text>
  </g>
</svg>
