<svg xmlns="http://www.w3.org/2000/svg" viewBox="0 0 1600 900" preserveAspectRatio="xMidYMid slice">
  <rect width="1600" height="900" fill="#C11720"/>
  <polygon points="0,0 760,0 1080,900 0,900" fill="#0C324A"/>
  <g stroke="#FEF1D5" stroke-width="2" opacity="0.08">
    <line x1="100" y1="80" x2="100" y2="820"/>
    <line x1="200" y1="80" x2="200" y2="820"/>
  </g>
  <g transform="translate(420 450)" stroke="#FEF1D5" fill="none" stroke-linecap="round" stroke-linejoin="round">
    <path d="M-180 0 C-180 -120, -100 -200, 0 -200 C100 -200, 180 -120, 180 0" stroke-width="22" fill="none"/>
    <rect x="-200" y="0" width="100" height="160" rx="20" fill="#FEF1D5" stroke="none"/>
    <rect x="100" y="0" width="100" height="160" rx="20" fill="#FEF1D5" stroke="none"/>
    <rect x="-220" y="20" width="40" height="120" rx="10" fill="#0C324A" stroke="none"/>
    <rect x="180" y="20" width="40" height="120" rx="10" fill="#0C324A" stroke="none"/>
  </g>
  <g transform="translate(880 450)" stroke="#FEF1D5" fill="none" stroke-linecap="round">
    <path d="M0 0 Q40 -120, 80 0 T160 0 T240 0 T320 0 T400 0 T480 0 T560 0" stroke-width="10"/>
    <path d="M0 0 Q40 60, 80 0 T160 0 T240 0 T320 0 T400 0 T480 0 T560 0" stroke-width="6" opacity="0.5"/>
  </g>
  <g transform="translate(380 740)" fill="#FEF1D5">
    <circle cx="0" cy="0" r="14"/>
    <circle cx="60" cy="0" r="14"/>
    <rect x="-7" y="-90" width="14" height="80"/>
    <rect x="53" y="-90" width="14" height="80"/>
    <rect x="-7" y="-90" width="74" height="14"/>
  </g>
</svg>
